# xmcd
#
# Track frame offsets: 
#        150
#        12192
#        23780
#        36480
#        47767
#        59447
#        72087
#        83347
#        94765
#        107222
#        119510
#        130860
#        143247
#        154610
#        166430
#        178950
#        191777
#        203707
#        216735
#        228642
#        240247
#        253292
#        266247
#        278457
#        290385
#        301047
#        312570
#        325687
#        336227
#
# Disc length: 4634 seconds
#
# Revision: 1
# Processed by: cddbd v1.5.2PL0 Copyright (c) Steve Scherf et al.
# Submitted via: ExactAudioCopyFreeDBPlugin 1.0
#
DISCID=b112181d
DTITLE=Various Artist - A Shot in the Dark:  Nashville Jumps - Blues 
DTITLE=and Rhythm on Nashville Independent Labels, 1945-1955
DYEAR=2000
DGENRE=Rhythm and Blues
TTITLE0=The Blue Flames - Driving Down the Highway
TTITLE1=The Blue Flames - Watch On
TTITLE2=Tommy McGhee - Late Every Evening
TTITLE3=Tommy McGhee - Poppin'
TTITLE4=Louis Brooks - Bus Station Blues
TTITLE5=Shy Guy Douglas - She's My Kinda Girl
TTITLE6=Shy Guy Douglas - No Place Like Home
TTITLE7=Louis Campbell - Natural Facts
TTITLE8=Louis Campbell - Gotta Have You Baby
TTITLE9=Bobby Prince - Please Give Me Your Love
TTITLE10=Arthur Gunter - Blues After Hours
TTITLE11=Arthur Gunter - Baby Let's Play House
TTITLE12=Beulah Bryant - What Am I Gonna Do
TTITLE13=Kid King's Combo - Now Listen Baby
TTITLE14=Arthur Gunter - You Are Doin' Me Wrong
TTITLE15=Slim Hunt - Lonesome for My Baby
TTITLE16=Louis Brooks - It's Love Baby
TTITLE17=The Marigolds - Rollin' Stone
TTITLE18=Arthur Gunter - No Happy Home
TTITLE19=Arthur Gunter - Honey Babe
TTITLE20=The Marigolds - Love You-Love You-Love You
TTITLE21=The Blues Rockers - Johnny Mae
TTITLE22=Earl Gaines - Baby Baby What's Wrong
TTITLE23=Crown Prince Waterford - Driftwood Blues
TTITLE24=Jerry "Boogie" McCain - That's What They Want
TTITLE25=Ted Jarrett - Love Love Love
TTITLE26=Good Rockin' Sam - Don't Let Daddy Slow Walk You Down
TTITLE27=Rudy Green - My Mumblin' Baby
TTITLE28=Larry Birdsong - Pleadin' for Love
EXTD=
EXTT0=
EXTT1=
EXTT2=
EXTT3=
EXTT4=
EXTT5=
EXTT6=
EXTT7=
EXTT8=
EXTT9=
EXTT10=
EXTT11=
EXTT12=
EXTT13=
EXTT14=
EXTT15=
EXTT16=
EXTT17=
EXTT18=
EXTT19=
EXTT20=
EXTT21=
EXTT22=
EXTT23=
EXTT24=
EXTT25=
EXTT26=
EXTT27=
EXTT28=
PLAYORDER=
